HIERARCHY
ROOT Root
{
  OFFSET 0.0 0.0 0.0
  CHANNELS 6 Xposition Yposition Zposition Zrotation Yrotation Xrotation
  JOINT Hips
  {
    OFFSET 0.0 100.0 0.0
    CHANNELS 6 Xposition Yposition Zposition Zrotation Yrotation Xrotation
    JOINT Spine1
    {
      OFFSET -0.013727 5.003763 -0.053727
      CHANNELS 3 Zrotation Yrotation Xrotation
      JOINT Spine2
      {
        OFFSET -0.0 7.125301 -0.029825
        CHANNELS 3 Zrotation Yrotation Xrotation
        JOINT Chest
        {
          OFFSET -1e-06 7.550063 -0.815971
          CHANNELS 3 Zrotation Yrotation Xrotation
          JOINT Neck1
          {
            OFFSET -0.181677 26.311295 -0.553348
            CHANNELS 3 Zrotation Yrotation Xrotation
            JOINT Neck2
            {
              OFFSET -3e-06 7.709397 2.302585
              CHANNELS 3 Zrotation Yrotation Xrotation
              JOINT Head
              {
                OFFSET -5e-06 6.128916 1.953709
                CHANNELS 3 Zrotation Yrotation Xrotation
                JOINT HeadEnd
                {
                  OFFSET 0.003598 16.065403 -1.835379
                  CHANNELS 3 Zrotation Yrotation Xrotation
                }
                JOINT Jaw
                {
                  OFFSET 0.002637 0.475592 3.094941
                  CHANNELS 3 Zrotation Yrotation Xrotation
                }
                JOINT LeftEye
                {
                  OFFSET 3.206381 5.380205 7.586883
                  CHANNELS 3 Zrotation Yrotation Xrotation
                }
                JOINT RightEye
                {
                  OFFSET -3.22244 5.361869 7.558234
                  CHANNELS 3 Zrotation Yrotation Xrotation
                }
              }
            }
          }
          JOINT LeftShoulder
          {
            OFFSET 1.621652 23.237164 5.113413
            CHANNELS 3 Zrotation Yrotation Xrotation
            JOINT LeftArm
            {
              OFFSET 14.919846 2e-06 -5.502326
              CHANNELS 3 Zrotation Yrotation Xrotation
              JOINT LeftForeArm
              {
                OFFSET 28.739307 0.0 -0.002588
                CHANNELS 3 Zrotation Yrotation Xrotation
                JOINT LeftHand
                {
                  OFFSET 27.093981 -1e-06 0.002609
                  CHANNELS 3 Zrotation Yrotation Xrotation
                  JOINT LeftHandThumb1
                  {
                    OFFSET 2.276482 -1.392045 3.191413
                    CHANNELS 3 Zrotation Yrotation Xrotation
                    JOINT LeftHandThumb2
                    {
                      OFFSET 4.012836 -1.828127 1.641654
                      CHANNELS 3 Zrotation Yrotation Xrotation
                      JOINT LeftHandThumb3
                      {
                        OFFSET 2.798515 0.0 -3e-06
                        CHANNELS 3 Zrotation Yrotation Xrotation
                        JOINT LeftHandThumbEnd
                        {
                          OFFSET 3.180793 -4e-06 4e-06
                          CHANNELS 3 Zrotation Yrotation Xrotation
                        }
                      }
                    }
                  }
                  JOINT LeftHandIndex1
                  {
                    OFFSET 3.247555 -0.531998 2.296169
                    CHANNELS 3 Zrotation Yrotation Xrotation
                    JOINT LeftHandIndex2
                    {
                      OFFSET 6.364578 0.01206 0.1786
                      CHANNELS 3 Zrotation Yrotation Xrotation
                      JOINT LeftHandIndex3
                      {
                        OFFSET 3.662364 0.0 0.0
                        CHANNELS 3 Zrotation Yrotation Xrotation
                        JOINT LeftHandIndex4
                        {
                          OFFSET 2.329242 4e-06 4e-06
                          CHANNELS 3 Zrotation Yrotation Xrotation
                          JOINT LeftHandIndexEnd
                          {
                            OFFSET 2.759615 -0.180537 -0.113024
                            CHANNELS 3 Zrotation Yrotation Xrotation
                          }
                        }
                      }
                    }
                  }
                  JOINT LeftHandMiddle1
                  {
                    OFFSET 3.163495 0.240981 1.000332
                    CHANNELS 3 Zrotation Yrotation Xrotation
                    JOINT LeftHandMiddle2
                    {
                      OFFSET 6.19078 -0.259278 -1.002548
                      CHANNELS 3 Zrotation Yrotation Xrotation
                      JOINT LeftHandMiddle3
                      {
                        OFFSET 4.35652 -4e-06 -1e-06
                        CHANNELS 3 Zrotation Yrotation Xrotation
                        JOINT LeftHandMiddle4
                        {
                          OFFSET 2.996877 -8e-06 0.0
                          CHANNELS 3 Zrotation Yrotation Xrotation
                          JOINT LeftHandMiddleEnd
                          {
                            OFFSET 2.304287 -0.294569 -0.031741
                            CHANNELS 3 Zrotation Yrotation Xrotation
                          }
                        }
                      }
                    }
                  }
                  JOINT LeftHandRing1
                  {
                    OFFSET 2.882643 -0.053652 -0.322543
                    CHANNELS 3 Zrotation Yrotation Xrotation
                    JOINT LeftHandRing2
                    {
                      OFFSET 5.854541 -0.486202 -1.373841
                      CHANNELS 3 Zrotation Yrotation Xrotation
                      JOINT LeftHandRing3
                      {
                        OFFSET 4.350578 0.0 3e-06
                        CHANNELS 3 Zrotation Yrotation Xrotation
                        JOINT LeftHandRing4
                        {
                          OFFSET 2.651321 7e-06 2e-06
                          CHANNELS 3 Zrotation Yrotation Xrotation
                          JOINT LeftHandRingEnd
                          {
                            OFFSET 1.936105 0.077687 -7.1e-05
                            CHANNELS 3 Zrotation Yrotation Xrotation
                          }
                        }
                      }
                    }
                  }
                  JOINT LeftHandPinky1
                  {
                    OFFSET 2.8655 -0.310005 -1.600378
                    CHANNELS 3 Zrotation Yrotation Xrotation
                    JOINT LeftHandPinky2
                    {
                      OFFSET 5.087849 -1.331141 -1.77123
                      CHANNELS 3 Zrotation Yrotation Xrotation
                      JOINT LeftHandPinky3
                      {
                        OFFSET 3.070974 4e-06 0.0
                        CHANNELS 3 Zrotation Yrotation Xrotation
                        JOINT LeftHandPinky4
                        {
                          OFFSET 1.549672 0.0 1e-06
                          CHANNELS 3 Zrotation Yrotation Xrotation
                          JOINT LeftHandPinkyEnd
                          {
                            OFFSET 1.944893 -0.157802 0.057219
                            CHANNELS 3 Zrotation Yrotation Xrotation
                          }
                        }
                      }
                    }
                  }
                }
              }
            }
          }
          JOINT RightShoulder
          {
            OFFSET -1.380118 23.180309 5.214158
            CHANNELS 3 Zrotation Yrotation Xrotation
            JOINT RightArm
            {
              OFFSET -15.037196 1.2e-05 -5.545604
              CHANNELS 3 Zrotation Yrotation Xrotation
              JOINT RightForeArm
              {
                OFFSET -28.736639 2e-06 -0.002597
                CHANNELS 3 Zrotation Yrotation Xrotation
                JOINT RightHand
                {
                  OFFSET -27.133619 -0.0 0.002613
                  CHANNELS 3 Zrotation Yrotation Xrotation
                  JOINT RightHandThumb1
                  {
                    OFFSET -2.274032 -1.383988 3.163127
                    CHANNELS 3 Zrotation Yrotation Xrotation
                    JOINT RightHandThumb2
                    {
                      OFFSET -4.011429 -1.827466 1.640914
                      CHANNELS 3 Zrotation Yrotation Xrotation
                      JOINT RightHandThumb3
                      {
                        OFFSET -2.794935 -4e-06 -3e-06
                        CHANNELS 3 Zrotation Yrotation Xrotation
                        JOINT RightHandThumbEnd
                        {
                          OFFSET -3.183852 4e-06 1e-06
                          CHANNELS 3 Zrotation Yrotation Xrotation
                        }
                      }
                    }
                  }
                  JOINT RightHandIndex1
                  {
                    OFFSET -3.253266 -0.520057 2.282866
                    CHANNELS 3 Zrotation Yrotation Xrotation
                    JOINT RightHandIndex2
                    {
                      OFFSET -6.341917 0.012471 0.178266
                      CHANNELS 3 Zrotation Yrotation Xrotation
                      JOINT RightHandIndex3
                      {
                        OFFSET -3.654871 -8e-06 -0.0
                        CHANNELS 3 Zrotation Yrotation Xrotation
                        JOINT RightHandIndex4
                        {
                          OFFSET -2.327586 0.0 1e-06
                          CHANNELS 3 Zrotation Yrotation Xrotation
                          JOINT RightHandIndexEnd
                          {
                            OFFSET -2.76179 -0.180656 -0.113078
                            CHANNELS 3 Zrotation Yrotation Xrotation
                          }
                        }
                      }
                    }
                  }
                  JOINT RightHandMiddle1
                  {
                    OFFSET -3.168106 0.246593 1.00103
                    CHANNELS 3 Zrotation Yrotation Xrotation
                    JOINT RightHandMiddle2
                    {
                      OFFSET -6.180828 -0.258836 -1.000895
                      CHANNELS 3 Zrotation Yrotation Xrotation
                      JOINT RightHandMiddle3
                      {
                        OFFSET -4.348901 0.0 -0.0
                        CHANNELS 3 Zrotation Yrotation Xrotation
                        JOINT RightHandMiddle4
                        {
                          OFFSET -3.00024 -4e-06 -2e-06
                          CHANNELS 3 Zrotation Yrotation Xrotation
                          JOINT RightHandMiddleEnd
                          {
                            OFFSET -2.30252 -0.29437 -0.031706
                            CHANNELS 3 Zrotation Yrotation Xrotation
                          }
                        }
                      }
                    }
                  }
                  JOINT RightHandRing1
                  {
                    OFFSET -2.88569 -0.067952 -0.308858
                    CHANNELS 3 Zrotation Yrotation Xrotation
                    JOINT RightHandRing2
                    {
                      OFFSET -5.854198 -0.48613 -1.373731
                      CHANNELS 3 Zrotation Yrotation Xrotation
                      JOINT RightHandRing3
                      {
                        OFFSET -4.33881 -4e-06 -0.0
                        CHANNELS 3 Zrotation Yrotation Xrotation
                        JOINT RightHandRing4
                        {
                          OFFSET -2.654903 -4e-06 4e-06
                          CHANNELS 3 Zrotation Yrotation Xrotation
                          JOINT RightHandRingEnd
                          {
                            OFFSET -1.933568 0.077527 -5.2e-05
                            CHANNELS 3 Zrotation Yrotation Xrotation
                          }
                        }
                      }
                    }
                  }
                  JOINT RightHandPinky1
                  {
                    OFFSET -2.866425 -0.342796 -1.584145
                    CHANNELS 3 Zrotation Yrotation Xrotation
                    JOINT RightHandPinky2
                    {
                      OFFSET -5.091371 -1.332055 -1.772385
                      CHANNELS 3 Zrotation Yrotation Xrotation
                      JOINT RightHandPinky3
                      {
                        OFFSET -3.062664 -4e-06 1e-06
                        CHANNELS 3 Zrotation Yrotation Xrotation
                        JOINT RightHandPinky4
                        {
                          OFFSET -1.546529 4e-06 -2e-06
                          CHANNELS 3 Zrotation Yrotation Xrotation
                          JOINT RightHandPinkyEnd
                          {
                            OFFSET -1.945119 -0.157718 0.057211
                            CHANNELS 3 Zrotation Yrotation Xrotation
                          }
                        }
                      }
                    }
                  }
                }
              }
            }
          }
        }
      }
    }
    JOINT LeftLeg
    {
      OFFSET 10.043214 -8.434526 2.595655
      CHANNELS 3 Zrotation Yrotation Xrotation
      JOINT LeftShin
      {
        OFFSET -1e-06 -43.221752 -0.802913
        CHANNELS 3 Zrotation Yrotation Xrotation
        JOINT LeftFoot
        {
          OFFSET 1e-06 -42.155094 -3.481523
          CHANNELS 3 Zrotation Yrotation Xrotation
          JOINT LeftToeBase
          {
            OFFSET 0.0 -5.059472 13.231529
            CHANNELS 3 Zrotation Yrotation Xrotation
            JOINT LeftToeEnd
            {
              OFFSET -0.009607 -1.647619 6.513017
              CHANNELS 3 Zrotation Yrotation Xrotation
            }
          }
        }
      }
    }
    JOINT RightLeg
    {
      OFFSET -10.047278 -8.29526 2.620317
      CHANNELS 3 Zrotation Yrotation Xrotation
      JOINT RightShin
      {
        OFFSET 1e-06 -43.362206 -0.805556
        CHANNELS 3 Zrotation Yrotation Xrotation
        JOINT RightFoot
        {
          OFFSET 2e-06 -42.117393 -3.478398
          CHANNELS 3 Zrotation Yrotation Xrotation
          JOINT RightToeBase
          {
            OFFSET -0.0 -5.079609 13.284196
            CHANNELS 3 Zrotation Yrotation Xrotation
            JOINT RightToeEnd
            {
              OFFSET 0.009532 -1.634378 6.460591
              CHANNELS 3 Zrotation Yrotation Xrotation
            }
          }
        }
      }
    }
  }
}
MOTION
Frames: 4
Frame Time: 0.03333333333333333
0.0 0.0 0.0 0.0 -0.0 0.0 1.523984 99.294342 5.064635 1.640909 -0.244697 4.478577 -1.253178 -0.344159 -6.921726 -0.907586 -0.476109 -7.768431 -1.855568 -2.499797 16.004036 3.694622 1.196109 5.287142 -1.077238 -0.607392 -3.595523 1.031563 -1.95707 -4.497229 7.7e-05 -2.2e-05 6e-06 0.011814 -0.008033 -0.016047 0.775638 -3.72417 -10.67245 -0.753461 3.710461 -10.72682 -19.27919 -5.965155 16.154716 -47.353077 -12.925303 23.233204 0.158187 -28.333126 -0.023154 8.444515 0.404621 -2.486666 -5.882108 9.861286 0.702591 -10.936873 -0.360573 7.156208 -1e-06 8.774825 -1e-06 -15.713428 18.298244 6.454209 -1.844033 2.498505 -2.507278 -10.163601 4.678946 4.621109 -20.976027 -1e-06 1e-06 -21.226288 2.451698 -3.594001 2e-06 -5e-06 -1e-06 -1.362681 2.240798 -0.746326 -21.334917 0.584912 3.008324 -13.821217 -0.0 0.0 -23.887175 -0.249077 -0.839485 -60.26239 2.455942 -0.903894 -0.294024 1.679688 0.833254 -14.218211 0.093217 1.300577 -34.212055 -0.287563 0.967166 -20.033218 0.964537 1.212842 -1e-06 0.0 0.0 -3.44039 0.788233 0.501657 -15.928189 -3.167308 2.999706 -6.338826 -0.0 -2e-06 -18.123449 3.648182 -4.905674 -5e-06 -0.0 0.0 16.004522 9.197706 16.848658 57.421799 11.836006 25.832726 0.061162 27.222279 0.153643 -9.365205 0.075523 -13.34151 2.243542 -5.255037 -3.180156 14.282892 -0.826597 6.952503 -0.0 -12.690605 -0.0 16.219831 -17.722799 2.606685 1.665667 -1.955921 -2.878297 4.7278 -4.170588 4.993924 11.020526 2e-06 0.0 12.109053 -3.735717 -2.866785 0.0 -0.0 1e-06 1.291985 -1.92855 -1.498089 14.800129 0.567465 3.865609 14.242571 -1.341739 -6.660657 19.631968 0.143923 -0.648244 49.503899 -0.484241 -6.281064 0.353029 -1.511151 -0.031939 20.222794 3.684308 2.316633 18.787273 2e-06 1e-06 10.751627 -0.479869 1.397906 -0.0 0.0 0.0 3.273807 0.305947 -0.58011 21.486809 11.830373 2.266134 8.162928 1e-06 -1e-06 18.39908 -3.798987 -4.940576 2e-06 -1e-06 -0.0 1.852844 4.367646 -8.146994 0.022959 0.13834 13.808625 -4.45685 -2.362221 -9.917432 1.634812 -1.749718 0.262272 0.0 -0.0 2e-06 -3.262977 -5.454335 -4.765657 -0.021978 -0.034166 14.026138 2.686128 -2.895146 -13.574246 -1.42108 1.011519 -0.100685 0.0 0.0 -1e-06 
0.0 0.0 0.0 0.0 -0.0 0.0 1.32616 99.259872 5.47639 1.591415 -0.454611 4.882279 -1.182941 -0.369508 -6.88241 -0.898018 -0.463446 -7.7315 -1.900238 -2.645013 15.84873 3.724184 1.185 5.29265 -1.041675 -0.520078 -3.594076 1.210571 -1.95541 -4.364131 7.7e-05 -2.2e-05 6e-06 0.003907 0.014339 -0.018567 0.765896 -3.704124 -10.688192 -0.759337 3.73449 -10.738153 -19.39222 -6.094564 16.110903 -47.048977 -12.963411 22.358541 -0.004567 -28.289345 -0.027183 8.358156 0.347927 -2.38037 -5.88211 9.861291 0.702591 -10.936881 -0.360577 7.156212 2e-06 8.774833 -1e-06 -15.672195 18.251431 6.433442 -1.844033 2.498505 -2.507279 -10.163607 4.678947 4.621112 -20.97604 -8e-06 1e-06 -21.226301 2.451694 -3.594001 1e-06 -5e-06 -1e-06 -1.362683 2.240799 -0.746324 -21.334932 0.584905 3.008326 -13.821225 -5e-06 1e-06 -23.887192 -0.249083 -0.839479 -60.251347 2.464266 -0.861752 -0.294025 1.67969 0.833255 -14.21822 0.093211 1.300579 -34.212074 -0.287572 0.967174 -20.033226 0.964533 1.212847 -1e-06 0.0 0.0 -3.440391 0.788233 0.501656 -15.928201 -3.167315 2.999707 -6.338831 -2e-06 -0.0 -18.123461 3.648181 -4.905674 -5e-06 -1e-06 0.0 16.050165 9.178834 16.834261 57.449528 11.973101 24.964777 0.070418 27.216564 0.142217 -9.300391 0.17384 -13.62889 2.243542 -5.255038 -3.180161 14.2829 -0.826593 6.952506 -5e-06 -12.690609 1e-06 16.270447 -17.713722 2.545451 1.665668 -1.955923 -2.878301 4.727801 -4.170588 4.993926 11.020535 6e-06 -3e-06 12.10906 -3.735715 -2.866786 -0.0 0.0 1e-06 1.291986 -1.92855 -1.49809 14.800136 0.56747 3.865606 14.242581 -1.341732 -6.660662 19.631981 0.143932 -0.648243 49.635139 -0.436995 -6.26632 0.353029 -1.51115 -0.031941 20.222803 3.684317 2.31663 18.787285 1e-05 -0.0 10.751634 -0.479865 1.397906 -0.0 -0.0 2e-06 3.273809 0.305947 -0.580112 21.486832 11.830384 2.266131 8.162931 4e-06 -2e-06 18.399092 -3.798982 -4.940576 2e-06 0.0 -0.0 2.081327 4.514023 -8.213705 -8.8e-05 0.088777 13.824718 -4.74249 -2.266302 -10.179919 1.631056 -1.749291 0.121402 -0.0 -0.0 2e-06 -3.03472 -4.896508 -4.927918 -0.022207 -0.011923 13.944 2.536715 -3.154154 -13.775657 -1.419844 1.017095 -0.204514 0.0 0.0 -1e-06 
0.0 0.0 0.0 0.0 -0.0 0.0 0.999061 99.184174 6.23244 1.57273 -0.698467 5.439214 -1.144602 -0.406802 -6.848199 -0.890079 -0.485891 -7.707427 -1.944752 -2.748112 15.70483 3.793304 1.160684 5.237398 -1.02213 -0.43651 -3.629583 1.436752 -1.979111 -4.135603 7.7e-05 -2.2e-05 6e-06 0.002629 0.020509 -0.019375 0.756534 -3.696078 -10.70487 -0.752264 3.738056 -10.744626 -19.501661 -6.26713 16.087147 -46.711346 -12.989565 21.237555 -0.147095 -28.268517 -0.024775 8.277663 0.32428 -2.577167 -5.882107 9.861286 0.70259 -10.936875 -0.360576 7.156206 1e-06 8.774828 1e-06 -15.622498 18.276255 6.428553 -1.844032 2.498504 -2.507276 -10.163601 4.678944 4.621106 -20.976028 -7e-06 3e-06 -21.226292 2.451696 -3.593999 1e-06 -5e-06 -2e-06 -1.362682 2.240798 -0.746324 -21.334921 0.584906 3.008324 -13.821217 -5e-06 2e-06 -23.887178 -0.249081 -0.839481 -60.232666 2.497831 -0.907472 -0.294024 1.679686 0.833258 -14.218213 0.093213 1.300578 -34.212063 -0.287568 0.967174 -20.033218 0.964535 1.212846 -0.0 -0.0 -0.0 -3.44039 0.788234 0.501655 -15.928192 -3.167312 2.999707 -6.338828 -2e-06 -1e-06 -18.123453 3.648182 -4.90567 -5e-06 -1e-06 0.0 16.068455 9.191165 16.740582 57.39983 12.03126 23.885481 0.088706 27.2348 0.095808 -9.296834 0.139699 -14.186957 2.243542 -5.255037 -3.180159 14.282898 -0.826596 6.952507 -2e-06 -12.690609 2e-06 16.289045 -17.689814 2.527687 1.665668 -1.955922 -2.878299 4.727802 -4.17059 4.993927 11.020534 4e-06 -0.0 12.109058 -3.735716 -2.866785 0.0 -0.0 1e-06 1.291986 -1.928551 -1.49809 14.800136 0.567467 3.865611 14.242579 -1.341736 -6.660661 19.631975 0.143926 -0.648244 49.678116 -0.398485 -6.246868 0.35303 -1.511151 -0.031939 20.222801 3.684312 2.316632 18.787285 5e-06 0.0 10.751636 -0.479869 1.397907 0.0 0.0 1e-06 3.273809 0.305947 -0.580112 21.486824 11.83038 2.266136 8.16293 2e-06 -0.0 18.399096 -3.798986 -4.940577 3e-06 1e-06 -2e-06 2.283769 4.680037 -8.346351 -0.002094 0.039545 13.762384 -4.956448 -2.200874 -10.600299 1.627792 -1.741577 -0.03853 0.0 -0.0 2e-06 -2.7834 -4.441184 -5.003867 -0.013965 0.007358 13.819754 2.323547 -3.34176 -14.171872 -1.416422 1.044792 -0.250424 0.0 0.0 -1e-06 
0.0 0.0 0.0 0.0 -0.0 0.0 0.619145 99.096725 6.999706 1.577857 -1.043335 6.152297 -1.125339 -0.445537 -6.797598 -0.866531 -0.51484 -7.692792 -2.010401 -2.817196 15.513199 3.869621 1.133532 5.006333 -1.020022 -0.288117 -3.661235 1.689929 -1.922557 -3.91679 7.7e-05 -2.2e-05 6e-06 0.002335 0.025526 -0.022602 0.747481 -3.689053 -10.714334 -0.74346 3.740533 -10.746313 -19.566441 -6.42943 16.039824 -46.468067 -13.011796 19.987371 -0.191225 -28.100653 -0.035547 8.327347 0.296745 -2.753591 -5.882111 9.861293 0.702591 -10.93688 -0.360575 7.156211 1e-06 8.774833 -1e-06 -15.5389 18.27281 6.443419 -1.844033 2.498507 -2.507279 -10.163608 4.678948 4.621113 -20.97604 -4e-06 1e-06 -21.226305 2.4517 -3.594002 1e-06 -6e-06 -1e-06 -1.362682 2.2408 -0.746324 -21.33493 0.58491 3.008325 -13.821223 -2e-06 0.0 -23.887188 -0.249079 -0.839483 -60.207737 2.51777 -0.921841 -0.294025 1.679689 0.833258 -14.218219 0.093216 1.30058 -34.212074 -0.287565 0.967171 -20.03323 0.964537 1.212842 -1e-06 -2e-06 -1e-06 -3.44039 0.788233 0.501657 -15.9282 -3.167311 2.999709 -6.338831 -1e-06 -0.0 -18.123459 3.648186 -4.905675 -5e-06 -0.0 0.0 15.983466 9.276443 16.593058 57.341263 11.998549 22.842974 0.02393 27.196207 0.029837 -9.372042 -0.105685 -14.766678 2.243542 -5.255037 -3.180157 14.282895 -0.826596 6.952501 -2e-06 -12.690609 1e-06 16.313927 -17.695581 2.524266 1.665667 -1.955922 -2.878299 4.7278 -4.170589 4.993925 11.020529 3e-06 -4e-06 12.109057 -3.735717 -2.866787 -0.0 0.0 -1e-06 1.291986 -1.92855 -1.498088 14.800132 0.567468 3.865605 14.242577 -1.341738 -6.66066 19.631971 0.143926 -0.648248 49.714169 -0.371118 -6.235582 0.353029 -1.511151 -0.03194 20.222797 3.684309 2.316628 18.787279 5e-06 -1e-06 10.751633 -0.479869 1.397905 -1e-06 0.0 1e-06 3.273807 0.305947 -0.580112 21.486816 11.830378 2.266129 8.162928 2e-06 -4e-06 18.399088 -3.798987 -4.940579 2e-06 0.0 -1e-06 2.466188 4.915069 -8.458553 0.011859 -0.000612 13.694841 -5.149001 -2.05938 -11.072607 1.624712 -1.744166 -0.243447 0.0 0.0 2e-06 -2.544897 -4.110919 -5.338159 -0.003453 0.017495 13.864565 2.062751 -3.342213 -14.628971 -1.414513 1.052938 -0.314991 0.0 0.0 -1e-06 
